<svg width="19" height="19" viewBox="0 0 19 19" fill="none" xmlns="http://www.w3.org/2000/svg">
<path d="M14.4943 1.15242C13.0687 1.00932 11.7005 1.46796 10.6459 2.42608C10.1637 2.8655 9.77658 3.39056 9.5 3.96798C9.22342 3.39056 8.83634 2.8655 8.3541 2.42605C7.30019 1.46792 5.93583 1.00676 4.50634 1.15238C1.97945 1.39385 0 3.66264 0 6.31726C0 12.439 8.88105 17.5195 9.2592 17.7328L9.50831 17.8746L9.75361 17.7265C10.1311 17.4991 19 12.0838 19 6.31726C19 3.66264 17.0212 1.39385 14.4943 1.15242ZM9.49232 16.7313C8.06346 15.8677 0.981098 11.3327 0.981098 6.31726C0.981098 4.16213 2.57027 2.32259 4.59956 2.12839C4.73371 2.11563 4.86719 2.10924 5.00004 2.10924C6.00159 2.10924 6.94628 2.47206 7.69426 3.15168C8.52974 3.91179 9.00941 4.99509 9.00941 6.12437H9.99051C9.99051 4.99505 10.4702 3.91176 11.3057 3.15295C12.1527 2.38133 13.2557 2.01855 14.401 2.12839C16.4297 2.32259 18.0188 4.16213 18.0188 6.31726C18.0189 11.0325 10.9148 15.8205 9.49232 16.7313Z" fill="#808080"/>
</svg>
